<mxfile host="Electron" modified="2023-11-23T13:21:58.273Z" agent="Mozilla/5.0 (Macintosh; Intel Mac OS X 10_15_7) AppleWebKit/537.36 (KHTML, like Gecko) draw.io/22.0.3 Chrome/114.0.5735.289 Electron/25.8.4 Safari/537.36" etag="6kYwojzy9Ly-OFZp3-Vo" version="22.0.3" type="device">
  <diagram name="Page-1" id="M9vWuYs-XAKr8XbjSEmD">
    <mxGraphModel dx="1173" dy="924" grid="1" gridSize="10" guides="1" tooltips="1" connect="1" arrows="1" fold="1" page="1" pageScale="1" pageWidth="827" pageHeight="1169" math="0" shadow="0">
      <root>
        <mxCell id="0" />
        <mxCell id="1" parent="0" />
        <mxCell id="AexVxDw_94k0qQD0-kbg-1" value="&lt;b&gt;GitLab Basics&lt;/b&gt;" style="text;strokeColor=none;fillColor=none;align=left;verticalAlign=middle;spacingLeft=4;spacingRight=4;overflow=hidden;points=[[0,0.5],[1,0.5]];portConstraint=eastwest;rotatable=0;whiteSpace=wrap;html=1;" parent="1" vertex="1">
          <mxGeometry x="80" y="160" width="170" height="30" as="geometry" />
        </mxCell>
        <mxCell id="HpAmPr7lI2h5sS1Epnzh-14" style="edgeStyle=orthogonalEdgeStyle;rounded=1;orthogonalLoop=1;jettySize=auto;html=1;entryX=0;entryY=0.5;entryDx=0;entryDy=0;" edge="1" parent="1" source="AexVxDw_94k0qQD0-kbg-2" target="AexVxDw_94k0qQD0-kbg-5">
          <mxGeometry relative="1" as="geometry" />
        </mxCell>
        <mxCell id="HpAmPr7lI2h5sS1Epnzh-15" style="edgeStyle=orthogonalEdgeStyle;rounded=1;orthogonalLoop=1;jettySize=auto;html=1;entryX=0;entryY=0.5;entryDx=0;entryDy=0;" edge="1" parent="1" source="AexVxDw_94k0qQD0-kbg-2" target="HpAmPr7lI2h5sS1Epnzh-1">
          <mxGeometry relative="1" as="geometry">
            <Array as="points">
              <mxPoint x="320" y="240" />
              <mxPoint x="320" y="320" />
            </Array>
          </mxGeometry>
        </mxCell>
        <mxCell id="AexVxDw_94k0qQD0-kbg-2" value="&amp;nbsp; &amp;nbsp; &amp;nbsp; &amp;nbsp; &amp;nbsp; &amp;nbsp; &amp;nbsp; my-first-pipeline" style="rounded=1;whiteSpace=wrap;html=1;align=left;fillColor=#d5e8d4;strokeColor=#82b366;" parent="1" vertex="1">
          <mxGeometry x="80" y="210" width="180" height="60" as="geometry" />
        </mxCell>
        <mxCell id="AexVxDw_94k0qQD0-kbg-3" value="" style="sketch=0;html=1;aspect=fixed;strokeColor=none;shadow=0;align=center;fillColor=#2D9C5E;verticalAlign=top;labelPosition=center;verticalLabelPosition=bottom;shape=mxgraph.gcp2.check" parent="1" vertex="1">
          <mxGeometry x="90" y="225" width="37.5" height="30" as="geometry" />
        </mxCell>
        <mxCell id="HpAmPr7lI2h5sS1Epnzh-16" style="edgeStyle=orthogonalEdgeStyle;rounded=0;orthogonalLoop=1;jettySize=auto;html=1;entryX=0;entryY=0.5;entryDx=0;entryDy=0;" edge="1" parent="1" source="AexVxDw_94k0qQD0-kbg-5" target="HpAmPr7lI2h5sS1Epnzh-10">
          <mxGeometry relative="1" as="geometry" />
        </mxCell>
        <mxCell id="AexVxDw_94k0qQD0-kbg-5" value="&amp;nbsp; &amp;nbsp; &amp;nbsp; &amp;nbsp; &amp;nbsp; &amp;nbsp; &amp;nbsp; my-docker-pipeline" style="rounded=1;whiteSpace=wrap;html=1;align=left;fillColor=#fff2cc;strokeColor=#d6b656;" parent="1" vertex="1">
          <mxGeometry x="340" y="210" width="180" height="60" as="geometry" />
        </mxCell>
        <mxCell id="AexVxDw_94k0qQD0-kbg-7" value="&lt;b&gt;GitLab Integrations&amp;nbsp;&lt;/b&gt;" style="text;strokeColor=none;fillColor=none;align=left;verticalAlign=middle;spacingLeft=4;spacingRight=4;overflow=hidden;points=[[0,0.5],[1,0.5]];portConstraint=eastwest;rotatable=0;whiteSpace=wrap;html=1;" parent="1" vertex="1">
          <mxGeometry x="340" y="160" width="170" height="30" as="geometry" />
        </mxCell>
        <mxCell id="HpAmPr7lI2h5sS1Epnzh-17" style="edgeStyle=orthogonalEdgeStyle;rounded=1;orthogonalLoop=1;jettySize=auto;html=1;entryX=0;entryY=0.5;entryDx=0;entryDy=0;" edge="1" parent="1" source="HpAmPr7lI2h5sS1Epnzh-1" target="HpAmPr7lI2h5sS1Epnzh-10">
          <mxGeometry relative="1" as="geometry">
            <Array as="points">
              <mxPoint x="540" y="320" />
              <mxPoint x="540" y="240" />
            </Array>
          </mxGeometry>
        </mxCell>
        <mxCell id="HpAmPr7lI2h5sS1Epnzh-1" value="&amp;nbsp; &amp;nbsp; &amp;nbsp; &amp;nbsp; &amp;nbsp; &amp;nbsp; &amp;nbsp; my-aws-pipeline" style="rounded=1;whiteSpace=wrap;html=1;align=left;fillColor=#fff2cc;strokeColor=#d6b656;" vertex="1" parent="1">
          <mxGeometry x="340" y="290" width="180" height="60" as="geometry" />
        </mxCell>
        <mxCell id="HpAmPr7lI2h5sS1Epnzh-3" value="" style="verticalLabelPosition=bottom;html=1;verticalAlign=top;strokeWidth=6;shape=mxgraph.lean_mapping.physical_pull;pointerEvents=1;fillColor=#fff2cc;strokeColor=#d6b656;" vertex="1" parent="1">
          <mxGeometry x="350" y="225" width="30" height="30" as="geometry" />
        </mxCell>
        <mxCell id="HpAmPr7lI2h5sS1Epnzh-4" value="" style="verticalLabelPosition=bottom;html=1;verticalAlign=top;strokeWidth=6;shape=mxgraph.lean_mapping.physical_pull;pointerEvents=1;fillColor=#fff2cc;strokeColor=#d6b656;" vertex="1" parent="1">
          <mxGeometry x="350" y="305" width="30" height="30" as="geometry" />
        </mxCell>
        <mxCell id="HpAmPr7lI2h5sS1Epnzh-13" style="edgeStyle=orthogonalEdgeStyle;rounded=1;orthogonalLoop=1;jettySize=auto;html=1;entryX=0;entryY=0.5;entryDx=0;entryDy=0;" edge="1" parent="1" source="HpAmPr7lI2h5sS1Epnzh-6" target="AexVxDw_94k0qQD0-kbg-5">
          <mxGeometry relative="1" as="geometry">
            <Array as="points">
              <mxPoint x="280" y="320" />
              <mxPoint x="280" y="240" />
            </Array>
          </mxGeometry>
        </mxCell>
        <mxCell id="HpAmPr7lI2h5sS1Epnzh-6" value="&amp;nbsp; &amp;nbsp; &amp;nbsp; &amp;nbsp; &amp;nbsp; &amp;nbsp; &amp;nbsp; my-staging-pipeline" style="rounded=1;whiteSpace=wrap;html=1;align=left;fillColor=#d5e8d4;strokeColor=#82b366;" vertex="1" parent="1">
          <mxGeometry x="80" y="290" width="180" height="60" as="geometry" />
        </mxCell>
        <mxCell id="HpAmPr7lI2h5sS1Epnzh-7" value="" style="sketch=0;html=1;aspect=fixed;strokeColor=none;shadow=0;align=center;fillColor=#2D9C5E;verticalAlign=top;labelPosition=center;verticalLabelPosition=bottom;shape=mxgraph.gcp2.check" vertex="1" parent="1">
          <mxGeometry x="90" y="305" width="37.5" height="30" as="geometry" />
        </mxCell>
        <mxCell id="HpAmPr7lI2h5sS1Epnzh-9" value="&lt;b&gt;Putting it all together&lt;/b&gt;" style="text;strokeColor=none;fillColor=none;align=left;verticalAlign=middle;spacingLeft=4;spacingRight=4;overflow=hidden;points=[[0,0.5],[1,0.5]];portConstraint=eastwest;rotatable=0;whiteSpace=wrap;html=1;" vertex="1" parent="1">
          <mxGeometry x="590" y="160" width="170" height="30" as="geometry" />
        </mxCell>
        <mxCell id="HpAmPr7lI2h5sS1Epnzh-10" value="&amp;nbsp; &amp;nbsp; &amp;nbsp; &amp;nbsp; &amp;nbsp; &amp;nbsp; &amp;nbsp; my-complex-pipeline" style="rounded=1;whiteSpace=wrap;html=1;align=left;fillColor=#fff2cc;strokeColor=#d6b656;" vertex="1" parent="1">
          <mxGeometry x="590" y="210" width="180" height="60" as="geometry" />
        </mxCell>
        <mxCell id="HpAmPr7lI2h5sS1Epnzh-11" value="" style="verticalLabelPosition=bottom;html=1;verticalAlign=top;strokeWidth=6;shape=mxgraph.lean_mapping.physical_pull;pointerEvents=1;fillColor=#fff2cc;strokeColor=#d6b656;" vertex="1" parent="1">
          <mxGeometry x="600" y="225" width="30" height="30" as="geometry" />
        </mxCell>
      </root>
    </mxGraphModel>
  </diagram>
</mxfile>
